<svg width="50" height="50" viewBox="0 0 50 50" fill="none" xmlns="http://www.w3.org/2000/svg">
<rect x="0.107849" width="49.8921" height="50" fill="#CC0033"/>
<path fill-rule="evenodd" clip-rule="evenodd" d="M0.161592 15H0.161571L0.0536804 13.7706C0.0536804 13.7706 5.92768 10.5411 12.2437 7.70404C11.3841 7.23044 8.96214 6.02 6.66233 6.02C3.8032 6.02 0 8.53226 0 8.53226L0.053946 7.35631C0.053946 7.35631 3.77622 4.97769 6.66233 4.97768C9.04421 4.97768 12.2895 6.63417 13.3508 7.21299C17.9545 5.19789 22.6241 3.5 25.2891 3.5C27.9047 3.5 32.3799 5.16115 36.8139 7.15764C38.01 6.53059 41.2291 4.951 43.3046 4.951C45.894 4.95099 49.7366 7.4098 49.7366 7.4098V8.53229C49.7366 8.53229 45.813 5.99331 43.3046 5.99331C41.3368 5.99331 38.8878 7.16092 37.9233 7.66433C43.4091 10.2038 48.586 13.0902 49.805 13.7781V14.9992C47.5517 13.6586 31.7689 4.40869 25.2891 4.40869C18.3073 4.40869 0.183348 14.9873 0.161592 15Z" fill="white"/>
<path fill-rule="evenodd" clip-rule="evenodd" d="M29.8415 11H19.7623V13H20.2105C15.0227 14.1015 10.9366 16.9259 9.36902 20.5H5.65142V43.5H0.107849V45H5.65142H14.2188V47.5H35.8891V45H44.4564H44.9604H50V43.5H44.9604V20.5H40.7388C39.1656 16.9131 35.0558 14.0813 29.8415 12.9882V11Z" fill="white"/>
<path d="M6.65935 22H24.298L16.7386 26H6.65935V22Z" fill="#CC0033"/>
<path d="M43.4485 22H25.8099L33.3693 26H43.4485V22Z" fill="#CC0033"/>
<rect x="36.3931" y="31" width="7.55942" height="12.5" fill="#CC0033"/>
<rect x="32.3614" y="31" width="2.51981" height="12.5" fill="#CC0033"/>
<rect x="28.3297" y="31" width="2.51981" height="12.5" fill="#CC0033"/>
<rect x="24.298" y="31" width="2.51981" height="12.5" fill="#CC0033"/>
<rect x="20.2663" y="31" width="2.51981" height="12.5" fill="#CC0033"/>
<rect x="16.2346" y="31" width="2.51981" height="12.5" fill="#CC0033"/>
<rect x="7.16331" y="31" width="7.55942" height="12.5" fill="#CC0033"/>
<rect x="6.65935" y="27" width="36.7892" height="1.5" fill="#CC0033"/>
</svg>
