<?xml version="1.0" standalone="no"?>
<!DOCTYPE svg PUBLIC "-//W3C//DTD SVG 20010904//EN"
 "http://www.w3.org/TR/2001/REC-SVG-20010904/DTD/svg10.dtd">
<svg version="1.0" xmlns="http://www.w3.org/2000/svg"
 width="700.000000pt" height="700.000000pt" viewBox="0 0 700.000000 700.000000"
 preserveAspectRatio="xMidYMid meet">
<metadata>
Created by potrace 1.11, written by Peter Selinger 2001-2013
</metadata>
<g transform="translate(0.000000,700.000000) scale(0.100000,-0.100000)"
fill="#000000" stroke="none">
<path d="M10 6490 c0 -280 2 -510 5 -510 3 0 41 20 84 45 174 100 408 198 588
246 112 30 311 37 423 15 185 -37 415 -120 633 -230 l128 -64 127 55 c489 212
973 376 1297 439 112 22 359 25 460 5 326 -63 820 -232 1282 -440 l113 -50
117 55 c385 181 600 247 803 247 117 1 203 -18 375 -81 102 -37 392 -178 478
-232 l47 -30 0 -75 c0 -42 -4 -75 -10 -75 -5 0 -40 19 -77 41 -246 151 -567
280 -760 305 -67 8 -228 -11 -340 -41 -97 -26 -309 -107 -406 -157 l-62 -31
75 -35 c396 -188 1001 -499 1423 -730 l157 -87 0 -88 0 -89 -23 15 c-55 36
-534 306 -762 429 -1238 670 -2176 1038 -2646 1038 -295 0 -799 -149 -1434
-423 -524 -226 -1286 -610 -1899 -956 -98 -55 -180 -101 -182 -101 -1 0 -5 8
-7 18 -3 9 -5 -889 -6 -1995 l-1 -2013 390 0 390 0 0 1610 0 1610 260 0 260 0
29 58 c65 129 154 246 285 377 135 134 241 216 406 313 181 107 437 210 675
272 61 16 100 29 88 29 -23 1 -23 3 -23 141 l0 140 705 0 705 0 0 -139 0 -139
73 -17 c129 -31 300 -86 412 -131 466 -191 812 -476 993 -816 l47 -88 293 0
292 0 0 -1610 0 -1610 355 0 355 0 0 3045 0 3045 -3495 0 -3495 0 0 -510z"/>
<path d="M750 6134 c-128 -27 -288 -87 -465 -175 -99 -48 -201 -102 -228 -119
l-47 -30 0 -365 c0 -201 1 -365 3 -365 2 0 89 45 193 101 279 148 1091 552
1306 649 103 47 188 88 188 91 0 12 -238 119 -340 153 -220 73 -447 96 -610
60z"/>
<path d="M930 3640 l0 -280 707 0 706 0 496 262 c273 144 510 270 526 280 29
17 -11 18 -1202 18 l-1233 0 0 -280z"/>
<path d="M3655 3898 c22 -11 260 -137 528 -279 l488 -259 705 0 704 0 0 280 0
280 -1232 0 -1233 -1 40 -21z"/>
<path d="M930 3115 l0 -105 2575 0 2575 0 0 105 0 105 -2575 0 -2575 0 0 -105z"/>
<path d="M1000 1785 l0 -875 530 0 530 0 0 875 0 875 -530 0 -530 0 0 -875z"/>
<path d="M2270 1785 l0 -875 180 0 180 0 0 875 0 875 -180 0 -180 0 0 -875z"/>
<path d="M2840 1785 l0 -875 175 0 175 0 0 875 0 875 -175 0 -175 0 0 -875z"/>
<path d="M3400 1785 l0 -875 175 0 175 0 0 875 0 875 -175 0 -175 0 0 -875z"/>
<path d="M3970 1785 l0 -875 175 0 175 0 0 875 0 875 -175 0 -175 0 0 -875z"/>
<path d="M4530 1785 l0 -875 175 0 175 0 0 875 0 875 -175 0 -175 0 0 -875z"/>
<path d="M5090 1785 l0 -875 530 0 530 0 0 875 0 875 -530 0 -530 0 0 -875z"/>
<path d="M10 350 l0 -350 3495 0 3495 0 0 350 0 350 -990 0 -990 0 0 -175 0
-175 -1515 0 -1515 0 0 175 0 175 -990 0 -990 0 0 -350z"/>
</g>
</svg>
